<svg width="26" height="26" viewBox="0 0 26 26" fill="none" xmlns="http://www.w3.org/2000/svg">
<path d="M3.10116 8.62926C3.00676 8.53475 2.87574 8.48047 2.74219 8.48047C2.60863 8.48047 2.47767 8.5348 2.38316 8.62926C2.28866 8.72371 2.23438 8.85473 2.23438 8.98828C2.23438 9.12184 2.28866 9.25285 2.38316 9.34725C2.47762 9.44176 2.60863 9.49609 2.74219 9.49609C2.87574 9.49609 3.00676 9.44176 3.10116 9.34725C3.19566 9.25285 3.25 9.12184 3.25 8.98828C3.25 8.85473 3.19566 8.72371 3.10116 8.62926Z" fill="#298000"/>
<path d="M22.2422 0H11.9675C11.6871 0 11.4597 0.227398 11.4597 0.507812C11.4597 0.788227 11.6871 1.01562 11.9675 1.01562H22.2422C22.5222 1.01562 22.75 1.24343 22.75 1.52344V24.4766C22.75 24.7566 22.5222 24.9844 22.2422 24.9844H3.75781C3.4778 24.9844 3.25 24.7566 3.25 24.4766V8.99235C3.25 8.71193 3.0226 8.48453 2.74219 8.48453C2.46177 8.48453 2.23438 8.71193 2.23438 8.99235V24.4766C2.23438 25.3166 2.91779 26 3.75781 26H22.2422C23.0822 26 23.7656 25.3166 23.7656 24.4766V1.52344C23.7656 0.683414 23.0822 0 22.2422 0Z" fill="#298000"/>
<path d="M13.0004 2.03125C12.6549 2.03125 12.3077 2.05766 11.9684 2.10966C11.6911 2.15221 11.5009 2.41135 11.5434 2.68856C11.5859 2.96578 11.8452 3.1558 12.1223 3.11355C12.4109 3.06927 12.7063 3.04688 13.0004 3.04688C16.1646 3.04688 18.7388 5.62108 18.7388 8.78521C18.7388 10.1903 18.2308 11.4788 17.3893 12.4775C17.0169 11.8372 16.5083 11.2848 15.891 10.8564C15.5307 10.6063 15.1436 10.4068 14.7383 10.259C15.2008 9.80693 15.4887 9.17688 15.4887 8.48057V7.98545C15.4887 6.61334 14.3725 5.49712 13.0004 5.49712C11.6284 5.49712 10.5122 6.61334 10.5122 7.98545V8.48057C10.5122 9.17688 10.8 9.80693 11.2625 10.259C10.8574 10.4068 10.4703 10.6063 10.1099 10.8564C9.48962 11.2869 8.97896 11.8423 8.60613 12.4866C7.96491 11.7246 7.51672 10.7874 7.34137 9.74182C7.29501 9.46532 7.03292 9.27875 6.75657 9.32501C6.47997 9.37137 6.29335 9.6332 6.33971 9.90981C6.60083 11.4668 7.40911 12.8919 8.61572 13.9226C9.83605 14.9651 11.3933 15.5392 13.0004 15.5392C16.7245 15.5392 19.7543 12.5094 19.7543 8.78526C19.7543 5.06111 16.7246 2.03125 13.0004 2.03125ZM11.5278 7.9854C11.5278 7.17336 12.1884 6.5127 13.0004 6.5127C13.8124 6.5127 14.4731 7.17336 14.4731 7.9854V8.48052C14.4731 9.29251 13.8124 9.95318 13.0004 9.95318C12.1884 9.95318 11.5278 9.29251 11.5278 8.48052V7.9854ZM13.0004 14.5235C11.6256 14.5235 10.3545 14.0435 9.35972 13.2295C10.0416 11.8456 11.4356 10.9688 13.0004 10.9688C14.562 10.9688 15.9534 11.842 16.6368 13.2209C15.6462 14.0345 14.3793 14.5235 13.0004 14.5235Z" fill="#298000"/>
<path d="M17.6896 20.2112H10.4786C10.1982 20.2112 9.97083 20.4386 9.97083 20.719C9.97083 20.9994 10.1982 21.2268 10.4786 21.2268H17.6896C17.97 21.2268 18.1974 20.9994 18.1974 20.719C18.1974 20.4386 17.97 20.2112 17.6896 20.2112Z" fill="#298000"/>
<path d="M8.66835 17.516C8.5739 17.4215 8.44288 17.3672 8.30933 17.3672C8.17577 17.3672 8.04476 17.4215 7.9503 17.516C7.85585 17.6104 7.80151 17.7414 7.80151 17.875C7.80151 18.009 7.8559 18.1396 7.9503 18.234C8.04476 18.3285 8.17577 18.3828 8.30933 18.3828C8.44288 18.3828 8.5739 18.3285 8.66835 18.234C8.76331 18.1396 8.81714 18.0086 8.81714 17.875C8.81714 17.7414 8.76331 17.6104 8.66835 17.516Z" fill="#298000"/>
<path d="M8.66835 20.3597C8.5739 20.2652 8.44339 20.2109 8.30933 20.2109C8.17577 20.2109 8.04476 20.2653 7.9503 20.3597C7.85585 20.4542 7.80151 20.5852 7.80151 20.7188C7.80151 20.8528 7.8559 20.9833 7.9503 21.0777C8.04476 21.1722 8.17577 21.2266 8.30933 21.2266C8.44288 21.2266 8.5739 21.1722 8.66835 21.0777C8.76331 20.9833 8.81714 20.8528 8.81714 20.7188C8.81714 20.5852 8.76331 20.4542 8.66835 20.3597Z" fill="#298000"/>
<path d="M17.6896 17.3674H10.4786C10.1982 17.3674 9.97083 17.5948 9.97083 17.8752C9.97083 18.1557 10.1982 18.3831 10.4786 18.3831H17.6896C17.97 18.3831 18.1974 18.1557 18.1974 17.8752C18.1974 17.5948 17.97 17.3674 17.6896 17.3674Z" fill="#298000"/>
<path d="M8.20722 2.92652C8.00881 2.72827 7.68737 2.72827 7.48901 2.92652L5.83527 4.58026L5.27012 4.01512C5.07172 3.81687 4.75028 3.81687 4.55192 4.01512C4.35362 4.21347 4.35362 4.53502 4.55192 4.73332L5.47614 5.65754C5.57532 5.75666 5.70522 5.80628 5.83522 5.80628C5.96522 5.80628 6.09512 5.75666 6.19434 5.65759L8.20722 3.64472C8.40552 3.44637 8.40552 3.12482 8.20722 2.92652Z" fill="#298000"/>
<path d="M6.39844 0C4.10236 0 2.23438 1.86799 2.23438 4.16406C2.23438 6.46014 4.10236 8.32812 6.39844 8.32812C8.69451 8.32812 10.5625 6.46014 10.5625 4.16406C10.5625 1.86799 8.69451 0 6.39844 0ZM6.39844 7.3125C4.66238 7.3125 3.25 5.90012 3.25 4.16406C3.25 2.428 4.66238 1.01562 6.39844 1.01562C8.1345 1.01562 9.54688 2.428 9.54688 4.16406C9.54688 5.90012 8.1345 7.3125 6.39844 7.3125Z" fill="#298000"/>
</svg>
