<svg width="26" height="26" viewBox="0 0 26 26" fill="none" xmlns="http://www.w3.org/2000/svg">
<g clip-path="url(#clip0)">
<path d="M5.18288 10.2085C5.09706 10.1226 4.97796 10.0732 4.85655 10.0732C4.73513 10.0732 4.61607 10.1226 4.53016 10.2085C4.44425 10.2944 4.3949 10.4135 4.3949 10.5349C4.3949 10.6563 4.44425 10.7754 4.53016 10.8612C4.61603 10.9471 4.73513 10.9965 4.85655 10.9965C4.97796 10.9965 5.09706 10.9471 5.18288 10.8612C5.2688 10.7754 5.31819 10.6563 5.31819 10.5349C5.31819 10.4135 5.2688 10.2944 5.18288 10.2085Z" fill="#EC6F8C"/>
<path d="M22.5838 2.36353H11.1736C10.9186 2.36353 10.7119 2.57025 10.7119 2.82517C10.7119 3.08009 10.9186 3.28682 11.1736 3.28682H22.5838C22.8384 3.28682 23.0455 3.49392 23.0455 3.74847V24.6149C23.0455 24.8695 22.8384 25.0766 22.5838 25.0766H5.77984C5.52529 25.0766 5.31819 24.8695 5.31819 24.6149V10.0998C5.31819 9.84485 5.11147 9.63812 4.85655 9.63812C4.60162 9.63812 4.3949 9.84485 4.3949 10.0998V24.6149C4.3949 25.3786 5.01618 25.9999 5.77984 25.9999H22.5838C23.3475 25.9999 23.9688 25.3786 23.9688 24.6149V3.74847C23.9688 2.98481 23.3475 2.36353 22.5838 2.36353Z" fill="#EC6F8C"/>
<path d="M14.182 4.21021C13.8679 4.21021 13.5522 4.23421 13.2437 4.28148C12.9917 4.32017 12.8187 4.55575 12.8574 4.80776C12.896 5.05978 13.1317 5.23252 13.3837 5.19411C13.646 5.15386 13.9146 5.1335 14.182 5.1335C17.0585 5.1335 19.3987 7.47369 19.3987 10.3502C19.3987 11.6275 18.9369 12.7989 18.1719 13.7068C17.8333 13.1247 17.371 12.6225 16.8097 12.233C16.4822 12.0057 16.1303 11.8243 15.7619 11.69C16.1824 11.279 16.4441 10.7062 16.4441 10.0732V9.62312C16.4441 8.37574 15.4293 7.361 14.182 7.361C12.9347 7.361 11.9199 8.37574 11.9199 9.62312V10.0732C11.9199 10.7062 12.1816 11.279 12.6021 11.69C12.2337 11.8243 11.8818 12.0057 11.5542 12.233C10.9903 12.6244 10.5261 13.1294 10.1872 13.715C9.60424 13.0223 9.19679 12.1703 9.03739 11.2198C8.99524 10.9685 8.75698 10.7988 8.50575 10.8409C8.25429 10.883 8.08464 11.1211 8.12679 11.3725C8.36417 12.7879 9.09897 14.0835 10.1959 15.0205C11.3053 15.9682 12.7209 16.4902 14.1819 16.4902C17.5675 16.4902 20.3219 13.7358 20.3219 10.3502C20.3219 6.96463 17.5676 4.21021 14.182 4.21021ZM12.8432 9.62307C12.8432 8.88485 13.4438 8.28425 14.182 8.28425C14.9202 8.28425 15.5208 8.88485 15.5208 9.62307V10.0732C15.5208 10.8114 14.9202 11.412 14.182 11.412C13.4438 11.412 12.8432 10.8114 12.8432 10.0732V9.62307ZM14.182 15.5668C12.9321 15.5668 11.7766 15.1304 10.8723 14.3905C11.4922 13.1324 12.7594 12.3353 14.182 12.3353C15.6016 12.3353 16.8665 13.1291 17.4878 14.3826C16.5872 15.1222 15.4355 15.5668 14.182 15.5668Z" fill="#EC6F8C"/>
<path d="M18.4459 20.7373H11.8905C11.6356 20.7373 11.4288 20.944 11.4288 21.199C11.4288 21.4539 11.6356 21.6606 11.8905 21.6606H18.4459C18.7008 21.6606 18.9075 21.4539 18.9075 21.199C18.9075 20.944 18.7008 20.7373 18.4459 20.7373Z" fill="#EC6F8C"/>
<path d="M10.2441 18.2874C10.1582 18.2014 10.0391 18.1521 9.9177 18.1521C9.79629 18.1521 9.67718 18.2015 9.59132 18.2874C9.50545 18.3732 9.45605 18.4923 9.45605 18.6137C9.45605 18.7356 9.5055 18.8543 9.59132 18.9401C9.67718 19.026 9.79629 19.0754 9.9177 19.0754C10.0391 19.0754 10.1582 19.026 10.2441 18.9401C10.3304 18.8543 10.3793 18.7352 10.3793 18.6137C10.3793 18.4923 10.3304 18.3732 10.2441 18.2874Z" fill="#EC6F8C"/>
<path d="M10.2441 20.8726C10.1582 20.7867 10.0396 20.7373 9.9177 20.7373C9.79629 20.7373 9.67718 20.7867 9.59132 20.8726C9.50545 20.9584 9.45605 21.0775 9.45605 21.199C9.45605 21.3208 9.5055 21.4395 9.59132 21.5253C9.67718 21.6112 9.79629 21.6606 9.9177 21.6606C10.0391 21.6606 10.1582 21.6112 10.2441 21.5253C10.3304 21.4395 10.3793 21.3208 10.3793 21.199C10.3793 21.0775 10.3304 20.9584 10.2441 20.8726Z" fill="#EC6F8C"/>
<path d="M18.4459 18.1521H11.8905C11.6356 18.1521 11.4288 18.3588 11.4288 18.6137C11.4288 18.8687 11.6356 19.0754 11.8905 19.0754H18.4459C18.7008 19.0754 18.9075 18.8687 18.9075 18.6137C18.9075 18.3588 18.7008 18.1521 18.4459 18.1521Z" fill="#EC6F8C"/>
<path d="M10.7208 8.66667H2.67321C2.06817 8.66667 1.57581 8.18061 1.57581 7.58333C1.57581 7.371 1.63507 7.17239 1.74773 7.00628L5.76276 0.52C5.95225 0.2015 6.31146 0 6.69702 0C7.08257 0 7.44179 0.2015 7.6342 0.525778L11.6543 7.02C11.759 7.17239 11.8182 7.371 11.8182 7.58333C11.8182 8.18061 11.3259 8.66667 10.7208 8.66667ZM6.69702 0.787879C6.56972 0.787879 6.45266 0.852879 6.39121 0.956156L2.52615 7.38255C2.48591 7.44178 2.46982 7.50172 2.46982 7.56961C2.46982 7.76822 2.63443 7.93072 2.83562 7.93072H10.5425C10.7437 7.93072 10.9083 7.76822 10.9083 7.56961C10.9083 7.50172 10.8922 7.44178 10.8607 7.39628L7.00649 0.961934C6.94137 0.852879 6.82432 0.787879 6.69702 0.787879Z" fill="#EC6F8C"/>
<path d="M6.69692 5.51504C6.47946 5.51504 6.30298 5.37385 6.30298 5.19989V2.67868C6.30298 2.50471 6.47946 2.36353 6.69692 2.36353C6.91437 2.36353 7.09086 2.50471 7.09086 2.67868V5.19989C7.09086 5.37385 6.91437 5.51504 6.69692 5.51504Z" fill="#EC6F8C"/>
<path d="M6.69692 7.09086C6.91448 7.09086 7.09086 6.91448 7.09086 6.69692C7.09086 6.47935 6.91448 6.30298 6.69692 6.30298C6.47935 6.30298 6.30298 6.47935 6.30298 6.69692C6.30298 6.91448 6.47935 7.09086 6.69692 7.09086Z" fill="#EC6F8C"/>
</g>
<defs>
<clipPath id="clip0">
<rect width="26" height="26" fill="white"/>
</clipPath>
</defs>
</svg>
