<svg width="26" height="26" viewBox="0 0 26 26" fill="none" xmlns="http://www.w3.org/2000/svg">
<path d="M10.7148 0C9.0348 0 7.66797 1.36683 7.66797 3.04688C7.66797 4.72692 9.0348 6.09375 10.7148 6.09375C12.3949 6.09375 13.7617 4.72692 13.7617 3.04688C13.7617 1.36683 12.3949 0 10.7148 0ZM10.7148 4.57031C9.87482 4.57031 9.19141 3.8869 9.19141 3.04688C9.19141 2.20685 9.87482 1.52344 10.7148 1.52344C11.5549 1.52344 12.2383 2.20685 12.2383 3.04688C12.2383 3.8869 11.5549 4.57031 10.7148 4.57031Z" fill="#998A00"/>
<path d="M20.668 0C17.7279 0 15.3359 2.39195 15.3359 5.33203C15.3359 8.27211 17.7279 10.6641 20.668 10.6641C23.6081 10.6641 26 8.27211 26 5.33203C26 2.39195 23.6081 0 20.668 0ZM20.668 9.14062C18.5679 9.14062 16.8594 7.43209 16.8594 5.33203C16.8594 3.23197 18.5679 1.52344 20.668 1.52344C22.768 1.52344 24.4766 3.23197 24.4766 5.33203C24.4766 7.43209 22.768 9.14062 20.668 9.14062Z" fill="#998A00"/>
<path d="M22.1914 4.57031H21.4297V3.80859C21.4297 3.38792 21.0886 3.04688 20.668 3.04688C20.2473 3.04688 19.9062 3.38792 19.9062 3.80859V5.33203C19.9062 5.7527 20.2473 6.09375 20.668 6.09375H22.1914C22.6121 6.09375 22.9531 5.7527 22.9531 5.33203C22.9531 4.91136 22.6121 4.57031 22.1914 4.57031Z" fill="#998A00"/>
<path d="M17.6211 13.7617H13.7617V9.14062C13.7617 7.46058 12.3949 6.09375 10.7148 6.09375C9.0348 6.09375 7.66797 7.46058 7.66797 9.14062V16.0469C7.66797 16.3139 7.71443 16.5703 7.79898 16.8086H5.814C5.814 16.8086 5.00292 10.3223 4.56975 6.80418C4.54238 5.56771 3.52808 4.57031 2.28516 4.57031C1.02512 4.57031 0 5.59543 0 6.85547C0 6.8869 0.00198047 6.91834 0.00583984 6.94957L1.524 19.1456C1.54578 20.1162 2.17577 20.9391 3.04688 21.248V25.2383C3.04688 25.659 3.38792 26 3.80859 26C4.22927 26 4.57031 25.659 4.57031 25.2383V21.3789H10.7148V25.2383C10.7148 25.659 11.0559 26 11.4766 26C11.8972 26 12.2383 25.659 12.2383 25.2383V21.2479C13.1249 20.9335 13.7617 20.0868 13.7617 19.0938C13.7617 18.8267 13.7153 18.5704 13.6307 18.332H15.3359V23.7148C15.3359 24.9749 16.3611 26 17.6211 26C18.8811 26 19.9062 24.9749 19.9062 23.7148V16.0469C19.9062 14.7868 18.8811 13.7617 17.6211 13.7617ZM11.4766 19.8555H3.80859C3.38858 19.8555 3.04688 19.5138 3.04688 19.0938C3.04688 19.0225 3.12965 19.7115 1.52445 6.81627C1.54492 6.41438 1.8783 6.09375 2.28516 6.09375C2.70517 6.09375 3.04688 6.43546 3.04688 6.85547C3.04688 6.95043 4.38572 17.6647 4.38572 17.6647C4.43341 18.0459 4.75744 18.332 5.1416 18.332C5.44284 18.332 11.1305 18.332 11.4766 18.332C11.8966 18.332 12.2383 18.6737 12.2383 19.0938C12.2383 19.5138 11.8966 19.8555 11.4766 19.8555ZM18.3828 23.7148C18.3828 24.1349 18.0411 24.4766 17.6211 24.4766C17.2011 24.4766 16.8594 24.1349 16.8594 23.7148V17.5703C16.8594 17.1496 16.5183 16.8086 16.0977 16.8086C15.8802 16.8086 10.301 16.8086 9.95262 16.8086C9.53281 16.8083 9.19141 16.4667 9.19141 16.0469V9.14062C9.19141 8.3006 9.87482 7.61719 10.7148 7.61719C11.5549 7.61719 12.2383 8.3006 12.2383 9.14062V14.5234C12.2383 14.9441 12.5793 15.2852 13 15.2852H17.6211C18.0411 15.2852 18.3828 15.6269 18.3828 16.0469V23.7148Z" fill="#998A00"/>
</svg>
