<svg width="26" height="26" viewBox="0 0 26 26" fill="none" xmlns="http://www.w3.org/2000/svg">
<path d="M18.4299 0H3.50024C2.66022 0 1.97681 0.683414 1.97681 1.52344V6.70312C1.97681 6.98359 2.20421 7.21094 2.48462 7.21094C2.76503 7.21094 2.99243 6.98359 2.99243 6.70312V1.52344C2.99243 1.24343 3.22024 1.01562 3.50024 1.01562H18.4299C18.7099 1.01562 18.9377 1.24343 18.9377 1.52344V20.4141C18.9377 20.6941 18.7099 20.9219 18.4299 20.9219H3.50024C3.22024 20.9219 2.99243 20.6941 2.99243 20.4141V10.9857C2.99243 10.7052 2.76503 10.4778 2.48462 10.4778C2.20421 10.4778 1.97681 10.7052 1.97681 10.9857V20.4141C1.97681 21.2541 2.66022 21.9375 3.50024 21.9375H18.4299C19.27 21.9375 19.9534 21.2541 19.9534 20.4141V1.52344C19.9534 0.683414 19.27 0 18.4299 0Z" fill="#003473"/>
<path d="M2.84359 8.61752C2.74919 8.52307 2.61817 8.46924 2.48462 8.46924C2.35106 8.46924 2.22005 8.52307 2.1256 8.61752C2.03109 8.71248 1.97681 8.8435 1.97681 8.97654C1.97681 9.11061 2.03114 9.24111 2.1256 9.33607C2.22005 9.43053 2.35106 9.48486 2.48462 9.48486C2.61812 9.48486 2.74914 9.43053 2.84359 9.33607C2.9381 9.24162 2.99243 9.11061 2.99243 8.97654C2.99243 8.84299 2.93804 8.71248 2.84359 8.61752Z" fill="#003473"/>
<path d="M4.87819 23.1048C4.78374 23.0104 4.65328 22.9561 4.51917 22.9561C4.38561 22.9561 4.25459 23.0104 4.16019 23.1048C4.06569 23.1993 4.01135 23.3303 4.01135 23.4639C4.01135 23.5979 4.06574 23.7284 4.16019 23.8229C4.25459 23.9179 4.38561 23.9717 4.51917 23.9717C4.65328 23.9717 4.78374 23.9179 4.87819 23.8229C4.97269 23.7284 5.02698 23.5979 5.02698 23.4639C5.02698 23.3303 4.97264 23.1993 4.87819 23.1048Z" fill="#003473"/>
<path d="M21.4805 2.03442C21.2001 2.03442 20.9727 2.26177 20.9727 2.54224V22.4485C20.9727 22.7285 20.7449 22.9563 20.4648 22.9563H6.55078C6.27037 22.9563 6.04297 23.1836 6.04297 23.4641C6.04297 23.7446 6.27037 23.9719 6.55078 23.9719H20.4648C21.3049 23.9719 21.9883 23.2885 21.9883 22.4485V2.54224C21.9883 2.26177 21.7609 2.03442 21.4805 2.03442Z" fill="#003473"/>
<path d="M23.5154 4.0625C23.235 4.0625 23.0076 4.28985 23.0076 4.57031V24.4766C23.0076 24.7566 22.7798 24.9844 22.4998 24.9844H6.55444C6.27403 24.9844 6.04663 25.2117 6.04663 25.4922C6.04663 25.7727 6.27403 26 6.55444 26H22.4998C23.3398 26 24.0232 25.3166 24.0232 24.4766V4.57031C24.0232 4.28985 23.7958 4.0625 23.5154 4.0625Z" fill="#003473"/>
<path d="M10.2034 3.75781H5.32837C5.04796 3.75781 4.82056 3.98516 4.82056 4.26562V9.14062C4.82056 9.42109 5.04796 9.64844 5.32837 9.64844H10.2034C10.4838 9.64844 10.7112 9.42109 10.7112 9.14062V4.26562C10.7112 3.98516 10.4838 3.75781 10.2034 3.75781ZM9.69556 8.63281H5.83618V4.77344H9.69556V8.63281Z" fill="#003473"/>
<path d="M8.56966 11.9539C8.37131 11.7556 8.04986 11.7556 7.85146 11.9539L6.50154 13.3038L5.87388 12.6761C5.67558 12.4778 5.35414 12.4778 5.15568 12.6761C4.95738 12.8744 4.95738 13.1959 5.15568 13.3942L6.14246 14.381C6.23773 14.4762 6.36687 14.5298 6.50154 14.5298C6.63626 14.5298 6.76535 14.4762 6.86066 14.381L8.56966 12.672C8.76796 12.4737 8.76796 12.1522 8.56966 11.9539Z" fill="#003473"/>
<path d="M16.8896 12.6445H10.9651C10.6847 12.6445 10.4573 12.8719 10.4573 13.1523C10.4573 13.4328 10.6847 13.6602 10.9651 13.6602H16.8896C17.17 13.6602 17.3974 13.4328 17.3974 13.1523C17.3974 12.8719 17.17 12.6445 16.8896 12.6445Z" fill="#003473"/>
<path d="M16.6018 3.75781H13.0471C12.7667 3.75781 12.5393 3.98516 12.5393 4.26562C12.5393 4.54609 12.7667 4.77344 13.0471 4.77344H16.6018C16.8822 4.77344 17.1096 4.54609 17.1096 4.26562C17.1096 3.98516 16.8822 3.75781 16.6018 3.75781Z" fill="#003473"/>
<path d="M16.6018 6.19531H13.0471C12.7667 6.19531 12.5393 6.42266 12.5393 6.70312C12.5393 6.98359 12.7667 7.21094 13.0471 7.21094H16.6018C16.8822 7.21094 17.1096 6.98359 17.1096 6.70312C17.1096 6.42266 16.8822 6.19531 16.6018 6.19531Z" fill="#003473"/>
<path d="M16.6018 8.63281H13.0471C12.7667 8.63281 12.5393 8.86016 12.5393 9.14062C12.5393 9.42109 12.7667 9.64844 13.0471 9.64844H16.6018C16.8822 9.64844 17.1096 9.42109 17.1096 9.14062C17.1096 8.86016 16.8822 8.63281 16.6018 8.63281Z" fill="#003473"/>
<path d="M8.56966 15.8321C8.37131 15.6338 8.04986 15.6338 7.85146 15.8321L6.50154 17.182L5.87388 16.5543C5.67558 16.356 5.35414 16.356 5.15568 16.5543C4.95738 16.7526 4.95738 17.0741 5.15568 17.2724L6.14246 18.2592C6.23773 18.3544 6.36687 18.4079 6.50154 18.4079C6.63626 18.4079 6.76535 18.3544 6.86066 18.2592L8.56966 16.5502C8.76796 16.3519 8.76796 16.0304 8.56966 15.8321Z" fill="#003473"/>
<path d="M16.8896 16.5039H10.9651C10.6847 16.5039 10.4573 16.7313 10.4573 17.0117C10.4573 17.2922 10.6847 17.5195 10.9651 17.5195H16.8896C17.17 17.5195 17.3974 17.2922 17.3974 17.0117C17.3974 16.7313 17.17 16.5039 16.8896 16.5039Z" fill="#003473"/>
</svg>
