<svg width="26" height="26" viewBox="0 0 26 26" fill="none" xmlns="http://www.w3.org/2000/svg">
<path d="M23.5625 24.375V4.87498H24.375C24.4827 4.87498 24.5861 4.83218 24.6623 4.756C24.7384 4.67981 24.7812 4.57648 24.7812 4.46873V1.62498C24.7812 1.56864 24.7695 1.51291 24.7468 1.46134C24.7241 1.40977 24.691 1.36349 24.6494 1.32543C24.6079 1.28737 24.5588 1.25837 24.5055 1.24027C24.4521 1.22218 24.3956 1.21538 24.3395 1.22031L10.527 2.43906C10.4258 2.44795 10.3316 2.49443 10.2629 2.56934C10.1943 2.64425 10.1563 2.74215 10.1562 2.84373V4.46873C10.1562 4.57648 10.1991 4.67981 10.2752 4.756C10.3514 4.83218 10.4548 4.87498 10.5625 4.87498H11.375V11.375H12.1875V4.87498H22.75V24.375H20.0877C20.2358 24.1342 20.3136 23.8569 20.3125 23.5742C20.3125 22.9932 20.0083 22.6868 19.7862 22.4631C19.5876 22.2632 19.5 22.1652 19.5 21.9375C19.5 20.9281 18.9418 19.9062 17.875 19.9062C16.8082 19.9062 16.25 20.9281 16.25 21.9375C16.25 22.1652 16.1623 22.2632 15.9639 22.4631C15.7417 22.6868 15.4375 22.9932 15.4375 23.5742C15.4363 23.8568 15.5141 24.1342 15.6621 24.375H11.375V19.0937C11.375 18.986 11.3322 18.8827 11.256 18.8065C11.1798 18.7303 11.0765 18.6875 10.9688 18.6875H8.53125C8.42351 18.6875 8.32017 18.7303 8.24399 18.8065C8.1678 18.8827 8.125 18.986 8.125 19.0937V24.375H6.90625V17.2012L11.7812 15.0684L16.6562 17.2012V19.5H17.4688V17.5567L18.1184 17.8411C18.1802 17.8681 18.2478 17.8793 18.3151 17.8737C18.3824 17.8681 18.4472 17.8458 18.5037 17.8088C18.5601 17.7719 18.6065 17.7214 18.6386 17.6621C18.6707 17.6027 18.6875 17.5362 18.6875 17.4687V15.4375C18.6875 15.3585 18.6645 15.2812 18.6212 15.2151C18.578 15.149 18.5165 15.097 18.4441 15.0653L11.9441 12.2216C11.8928 12.1991 11.8373 12.1875 11.7812 12.1875C11.7252 12.1875 11.6697 12.1991 11.6184 12.2216L5.11839 15.0653C5.04604 15.097 4.98448 15.149 4.94125 15.2151C4.89802 15.2812 4.875 15.3585 4.875 15.4375V17.4687C4.875 17.5362 4.89181 17.6026 4.92392 17.662C4.95603 17.7214 5.00242 17.7718 5.0589 17.8087C5.11538 17.8457 5.18018 17.868 5.24743 17.8736C5.31468 17.8792 5.38228 17.868 5.44411 17.8409L6.09375 17.5565V24.375H3.25V17.4687H4.0625V16.6562H1.625V7.71873H10.5625V6.90623H7.88704L6.38102 5.40021C6.34329 5.36249 6.29851 5.33257 6.24922 5.31215C6.19993 5.29174 6.1471 5.28123 6.09375 5.28123H2.84375C2.73601 5.28123 2.63267 5.32404 2.55649 5.40022C2.4803 5.47641 2.4375 5.57974 2.4375 5.68748V6.90623H1.21875C1.11101 6.90623 1.00767 6.94903 0.931488 7.02522C0.855301 7.10141 0.8125 7.20474 0.8125 7.31248V17.0625C0.8125 17.1702 0.855301 17.2736 0.931488 17.3497C1.00767 17.4259 1.11101 17.4687 1.21875 17.4687H2.4375V24.375H0.8125V25.1875H25.1875V24.375H23.5625ZM10.9688 3.21571L23.9688 2.06866V4.06248H10.9688V3.21571ZM5.6875 16.8476V15.7032L11.7812 13.0372L17.875 15.7032V16.8476L17.4688 16.6698V16.6562H17.4377L11.9441 14.2528C11.8928 14.2303 11.8373 14.2187 11.7812 14.2187C11.7252 14.2187 11.6697 14.2303 11.6184 14.2528L6.12483 16.6562H6.09375V16.6698L5.6875 16.8476ZM3.25 6.09373H5.92551L6.73801 6.90623H3.25V6.09373ZM8.9375 19.5H10.5625V24.375H8.9375V19.5ZM17.0625 24.375C16.8388 24.375 16.25 24.1287 16.25 23.5742C16.25 23.338 16.339 23.2383 16.5405 23.0355C16.7608 22.8136 17.0625 22.5097 17.0625 21.9375C17.0625 20.9735 17.594 20.7187 17.875 20.7187C18.5177 20.7187 18.6875 21.516 18.6875 21.9375C18.6875 22.5097 18.9892 22.8136 19.2095 23.0355C19.4109 23.2386 19.4999 23.338 19.4999 23.5742C19.5 24.1287 18.9112 24.375 18.6875 24.375H17.0625Z" fill="#003473"/>
<path d="M12.5938 19.5C12.486 19.5 12.3827 19.5428 12.3065 19.619C12.2303 19.6952 12.1875 19.7985 12.1875 19.9062V21.9375C12.1875 22.0452 12.2303 22.1486 12.3065 22.2248C12.3827 22.3009 12.486 22.3438 12.5938 22.3438H15.0312C15.139 22.3438 15.2423 22.3009 15.3185 22.2248C15.3947 22.1486 15.4375 22.0452 15.4375 21.9375V19.9062C15.4375 19.7985 15.3947 19.6952 15.3185 19.619C15.2423 19.5428 15.139 19.5 15.0312 19.5H12.5938ZM14.625 21.5312H13V20.3125H14.625V21.5312Z" fill="#003473"/>
<path d="M10.1562 17.0625H9.34375V17.875H10.1562V17.0625Z" fill="#003473"/>
<path d="M6.90625 13.4062V9.34375H10.5625V8.53125H2.84375C2.73601 8.53125 2.63267 8.57405 2.55649 8.65024C2.4803 8.72642 2.4375 8.82976 2.4375 8.9375V15.4375C2.4375 15.5452 2.4803 15.6486 2.55649 15.7248C2.63267 15.8009 2.73601 15.8438 2.84375 15.8438H4.0625V15.0312H3.25V9.34375H6.09375V13.4062H6.90625Z" fill="#003473"/>
<path d="M13.8125 9.34375H16.25C16.3577 9.34375 16.4611 9.30095 16.5373 9.22476C16.6134 9.14858 16.6562 9.04524 16.6562 8.9375V6.5C16.6562 6.39226 16.6134 6.28892 16.5373 6.21274C16.4611 6.13655 16.3577 6.09375 16.25 6.09375H13.8125C13.7048 6.09375 13.6014 6.13655 13.5252 6.21274C13.4491 6.28892 13.4062 6.39226 13.4062 6.5V8.9375C13.4062 9.04524 13.4491 9.14858 13.5252 9.22476C13.6014 9.30095 13.7048 9.34375 13.8125 9.34375ZM14.2188 6.90625H15.8438V8.53125H14.2188V6.90625Z" fill="#003473"/>
<path d="M18.6875 9.34375H21.125C21.2327 9.34375 21.3361 9.30095 21.4123 9.22476C21.4884 9.14858 21.5312 9.04524 21.5312 8.9375V6.5C21.5312 6.39226 21.4884 6.28892 21.4123 6.21274C21.3361 6.13655 21.2327 6.09375 21.125 6.09375H18.6875C18.5798 6.09375 18.4764 6.13655 18.4002 6.21274C18.3241 6.28892 18.2812 6.39226 18.2812 6.5V8.9375C18.2812 9.04524 18.3241 9.14858 18.4002 9.22476C18.4764 9.30095 18.5798 9.34375 18.6875 9.34375ZM19.0938 6.90625H20.7188V8.53125H19.0938V6.90625Z" fill="#003473"/>
<path d="M13.4062 12.1875H14.2188V11.375H15.8438V13.4062H16.6562V10.9688C16.6562 10.861 16.6134 10.7577 16.5373 10.6815C16.4611 10.6053 16.3577 10.5625 16.25 10.5625H13.8125C13.7048 10.5625 13.6014 10.6053 13.5252 10.6815C13.4491 10.7577 13.4062 10.861 13.4062 10.9688V12.1875Z" fill="#003473"/>
<path d="M18.2812 13.4062C18.2812 13.514 18.3241 13.6173 18.4002 13.6935C18.4764 13.7697 18.5798 13.8125 18.6875 13.8125H21.125C21.2327 13.8125 21.3361 13.7697 21.4123 13.6935C21.4884 13.6173 21.5312 13.514 21.5312 13.4062V10.9688C21.5312 10.861 21.4884 10.7577 21.4123 10.6815C21.3361 10.6053 21.2327 10.5625 21.125 10.5625H18.6875C18.5798 10.5625 18.4764 10.6053 18.4002 10.6815C18.3241 10.7577 18.2812 10.861 18.2812 10.9688V13.4062ZM19.0938 11.375H20.7188V13H19.0938V11.375Z" fill="#003473"/>
<path d="M19.5 17.4688V18.2812H21.125C21.2327 18.2812 21.3361 18.2384 21.4123 18.1623C21.4884 18.0861 21.5312 17.9827 21.5312 17.875V15.4375C21.5312 15.3298 21.4884 15.2264 21.4123 15.1502C21.3361 15.0741 21.2327 15.0312 21.125 15.0312H19.5V15.8438H20.7188V17.4688H19.5Z" fill="#003473"/>
<path d="M4.875 18.6875H4.0625V19.5H4.875V18.6875Z" fill="#003473"/>
</svg>
